<svg width="28" height="27" viewBox="0 0 28 27" fill="none" xmlns="http://www.w3.org/2000/svg">
<path d="M23.5765 17.0502C21.3792 13.8373 19.0099 10.3118 13.4711 11.7959C11.0022 12.4575 9.35899 13.7306 8.44746 15.6883C7.64005 17.4223 7.49494 19.4591 7.34672 21.399C7.16287 23.777 9.63523 25.4664 11.7935 24.4196C13.564 23.5604 15.9659 22.2685 19.8192 21.9914C21.3042 21.8846 21.4469 21.8926 21.8309 21.7897C23.8367 21.2522 24.8073 18.8464 23.5765 17.0502Z" fill="#FBDD7B"/>
<path d="M21.8315 21.7897C23.8373 21.2522 24.8079 18.8463 23.577 17.0502C21.3797 13.8373 19.0105 10.3118 13.4717 11.7959L16.3593 22.5725C19.1337 21.8291 20.9286 22.0317 21.8315 21.7897Z" fill="#FECB3E"/>
<path d="M16.5657 16.4037L15.481 16.6943L15.1903 15.6096C15.094 15.2501 14.7245 15.0368 14.365 15.1331C14.0056 15.2294 13.7922 15.5989 13.8886 15.9584L14.1792 17.0431L13.0944 17.3338C12.735 17.4301 12.5217 17.7996 12.618 18.1591C12.7143 18.5185 13.0838 18.7319 13.4432 18.6355L14.528 18.3449L14.8187 19.4297C14.915 19.7891 15.2845 20.0024 15.644 19.9061C16.0034 19.8098 16.2167 19.4403 16.1204 19.0809L15.8298 17.9961L16.9145 17.7054C17.274 17.6091 17.4873 17.2396 17.391 16.8801C17.2947 16.5207 16.9252 16.3074 16.5657 16.4037Z" fill="#FFF8E0"/>
<path d="M16.1206 19.0809L15.83 17.9961L16.9147 17.7054C17.2742 17.6091 17.4875 17.2396 17.3912 16.8801C17.2949 16.5207 16.9254 16.3074 16.5659 16.4037L15.4812 16.6943L15.1905 15.6096C15.0942 15.2501 14.7247 15.0368 14.3652 15.1331L15.6442 19.9061C16.0036 19.8098 16.2169 19.4403 16.1206 19.0809Z" fill="#FFE799"/>
<path d="M21.2762 6.21228C19.9602 6.56488 19.1765 7.92234 19.5291 9.23826C19.8817 10.5542 21.2392 11.3379 22.5551 10.9853C23.871 10.6327 24.6981 9.26363 24.3455 7.9477C23.9929 6.63178 22.5921 5.85968 21.2762 6.21228Z" fill="#FECB3E"/>
<path d="M16.42 8.91634C17.9319 8.51124 18.7454 6.64494 18.237 4.74783C17.7287 2.85072 16.0911 1.6412 14.5792 2.0463C13.0674 2.45139 12.2539 4.3177 12.7622 6.21481C13.2705 8.11192 14.9082 9.32143 16.42 8.91634Z" fill="#FECB3E"/>
<path d="M9.47766 10.7766C10.9895 10.3715 11.803 8.5052 11.2947 6.60809C10.7863 4.71098 9.14867 3.50146 7.63683 3.90656C6.125 4.31165 5.3115 6.17796 5.81983 8.07507C6.32815 9.97218 7.96582 11.1817 9.47766 10.7766Z" fill="#FBDD7B"/>
<path d="M3.92014 10.8629C2.60422 11.2155 1.7771 12.5846 2.1297 13.9006C2.4823 15.2165 3.88315 15.9886 5.19907 15.636C6.515 15.2834 7.29872 13.9259 6.94612 12.61C6.59352 11.2941 5.23607 10.5103 3.92014 10.8629Z" fill="#FBDD7B"/>
</svg>
