<svg width="42" height="73" viewBox="0 0 42 73" fill="none" xmlns="http://www.w3.org/2000/svg">
<rect width="42" height="73" fill="#E5E5E5"/>
<g clip-path="url(#clip0_0_1)">
<rect width="1440" height="2062" transform="translate(-705 -480)" fill="#F9F9F9"/>
<path d="M35.8584 71.4307H5.34668C3.26045 71.4307 1.56934 69.7396 1.56934 67.6533V5.34668C1.56934 3.26045 3.26045 1.56934 5.34668 1.56934H35.8584C37.9446 1.56934 39.6357 3.26045 39.6357 5.34668V67.6533C39.6357 69.7396 37.9446 71.4307 35.8584 71.4307Z" fill="#EAF6FF" stroke="black"/>
<path d="M35.8584 72.5H5.34668C2.67459 72.5 0.5 70.3254 0.5 67.6533V5.34668C0.5 2.67459 2.67459 0.5 5.34668 0.5H35.8584C38.5305 0.5 40.7051 2.67459 40.7051 5.34668V67.6533C40.7051 70.3254 38.5305 72.5 35.8584 72.5ZM5.34668 1.63867C3.30156 1.63867 1.63867 3.30173 1.63867 5.34668V67.6533C1.63867 69.6983 3.30156 71.3613 5.34668 71.3613H35.8584C37.9035 71.3613 39.5664 69.6983 39.5664 67.6533V5.34668C39.5664 3.30173 37.9035 1.63867 35.8584 1.63867H5.34668Z" fill="#9E9797" stroke="black"/>
<path d="M24.9716 5.9518H16.2332C14.1469 5.9518 12.4558 4.26069 12.4558 2.17446V1.56934H28.749V2.17446C28.749 4.26068 27.0577 5.9518 24.9716 5.9518Z" fill="#9E9797" stroke="black"/>
<path d="M29.6357 28.9629C37.1686 28.9784 43.323 35.1432 43.3263 42.6762C43.3278 46.0429 42.1163 49.1265 40.1053 51.5144C39.253 52.5263 39.0802 53.9466 39.6636 55.134L41.157 58.1741C41.2796 58.4237 41.0339 58.695 40.7733 58.5975L34.4241 56.221C33.8241 55.9964 33.1723 55.9488 32.5464 56.0857C31.5158 56.3109 30.4419 56.4206 29.3388 56.3994C21.8894 56.2566 15.8766 50.1127 15.8875 42.662C15.8983 35.0846 22.0522 28.9472 29.6357 28.9629Z" fill="#FFBD54"/>
<path d="M39.6635 55.134C39.0802 53.9466 39.2529 52.5263 40.1053 51.5144C42.1164 49.1265 43.3279 46.0429 43.3264 42.6762C43.3231 35.1433 37.1687 28.9784 29.6358 28.9629C29.1312 28.9618 28.633 28.9888 28.1423 29.0409C35.008 29.7755 40.3983 35.6266 40.4014 42.6762C40.4029 46.0429 39.1915 49.1265 37.1803 51.5144C36.3281 52.5263 36.1553 53.9466 36.7386 55.134L37.9143 57.5273L40.7733 58.5974C41.0338 58.6949 41.2795 58.4237 41.1569 58.174L39.6635 55.134Z" fill="#FFD064"/>
<path d="M12.3645 22.6738C4.83153 22.6894 -1.32285 28.8542 -1.32617 36.3872C-1.3277 39.7539 -0.116157 42.8374 1.8949 45.2254C2.74716 46.2373 2.91993 47.6575 2.33657 48.845L0.843192 51.885C0.720556 52.1347 0.966278 52.4059 1.22682 52.3085L7.57607 49.9319C8.17604 49.7074 8.82786 49.6598 9.45371 49.7966C10.4844 50.0218 11.5583 50.1315 12.6614 50.1103C20.1108 49.9676 26.1236 43.8236 26.1127 36.3729C26.1018 28.7956 19.9481 22.6582 12.3645 22.6738Z" fill="#78C0DE"/>
<path d="M12.3648 22.6738C11.8446 22.6749 11.3313 22.7063 10.8258 22.7645C17.6535 23.5458 22.9583 29.3383 22.9687 36.3729C22.9789 43.3829 17.6568 49.2353 10.8232 50.0222C11.4253 50.091 12.0387 50.1222 12.6619 50.1103C20.1113 49.9674 26.1241 43.8235 26.1132 36.3728C26.1021 28.7956 19.9484 22.6582 12.3648 22.6738Z" fill="#80B4FB"/>
<path d="M11.8445 33.6734L8.25577 30.0847C8.09531 29.9242 7.83522 29.9242 7.67475 30.0847L6.86778 30.8916C5.66289 32.0965 5.66289 34.0501 6.86778 35.255L13.5314 41.9186C14.7363 43.1235 16.6898 43.1235 17.8947 41.9186L18.7017 41.1116C18.8622 40.9512 18.8622 40.6911 18.7017 40.5306L15.113 36.9419C14.9525 36.7814 14.6924 36.7814 14.532 36.9419L13.8086 37.6652C13.463 38.0108 12.9028 38.0108 12.5571 37.6652L11.1211 36.2292C10.7754 35.8836 10.7754 35.3234 11.1211 34.9777L11.8444 34.2544C12.0049 34.094 12.0049 33.8338 11.8445 33.6734Z" fill="#26457D"/>
<path d="M26.6782 42.1569V43.2079C26.6782 43.5802 26.9798 43.8818 27.352 43.8818C27.7243 43.8818 28.0259 43.5802 28.0259 43.2079V42.1569C28.0259 41.7846 27.7243 41.483 27.352 41.483C26.9798 41.483 26.6782 41.7846 26.6782 42.1569Z" fill="black"/>
<path d="M31.1873 42.1569V43.2079C31.1873 43.5802 31.4889 43.8818 31.8611 43.8818C32.2333 43.8818 32.5349 43.5802 32.5349 43.2079V42.1569C32.5349 41.7846 32.2333 41.483 31.8611 41.483C31.4889 41.483 31.1873 41.7846 31.1873 42.1569Z" fill="black"/>
<path d="M35.6963 42.1569V43.2079C35.6963 43.5802 35.9979 43.8818 36.3701 43.8818C36.7423 43.8818 37.0439 43.5802 37.0439 43.2079V42.1569C37.0439 41.7846 36.7423 41.483 36.3701 41.483C35.9979 41.483 35.6963 41.7846 35.6963 42.1569Z" fill="black"/>
<path d="M29.6368 28.289H29.606C27.9591 28.289 26.3496 28.5649 24.8128 29.1084C24.1948 28.059 23.4393 27.0812 22.5539 26.1987C19.8366 23.4903 16.2294 22 12.3935 22H12.363C10.7531 22.0033 9.16897 22.2747 7.65457 22.8066C7.30346 22.9299 7.11875 23.3145 7.2421 23.6657C7.36546 24.0169 7.7499 24.2018 8.10118 24.0782C9.47264 23.5965 10.9074 23.3507 12.3659 23.3477H12.3935C15.87 23.3477 19.1399 24.6987 21.6027 27.1533C23.9784 29.5211 25.4337 32.7644 25.439 36.3739C25.444 39.8001 24.1173 43.0449 21.7033 45.5107C19.2612 48.0051 16.0292 49.3717 12.6487 49.4365C11.6204 49.4573 10.5935 49.3559 9.59779 49.1382C8.84455 48.9735 8.0639 49.0298 7.34003 49.3008L1.855 51.3539L2.94148 49.1421C3.6427 47.7146 3.43409 46.007 2.41032 44.7914C0.433949 42.4446 -0.653785 39.4601 -0.652348 36.3874C-0.650371 31.8143 1.81376 27.5131 5.77837 25.1624C6.09839 24.9726 6.20405 24.5593 6.0143 24.2392C5.82455 23.9191 5.41118 23.8135 5.09107 24.0032C2.97562 25.2575 1.20121 27.0422 -0.0404245 29.1644C-1.32123 31.3535 -1.99883 33.851 -2 36.3869C-2.00153 39.7769 -0.801308 43.07 1.37955 45.6594C2.05913 46.4662 2.19748 47.6001 1.73192 48.5478L0.238539 51.5879C0.0601103 51.951 0.120485 52.3795 0.392081 52.6793C0.665205 52.9806 1.08648 53.0804 1.46319 52.9394L7.81252 50.5628C8.29291 50.3831 8.81068 50.3456 9.31003 50.4548C10.4086 50.6949 11.5407 50.805 12.6745 50.7839C14.239 50.7539 15.7635 50.4722 17.2022 49.9603C19.7415 54.2673 24.3324 56.9774 29.3253 57.073C30.4599 57.0945 31.591 56.9839 32.6898 56.7438C33.1892 56.6348 33.707 56.672 34.1875 56.852L40.5368 59.2285C41.3665 59.5386 42.1531 58.6746 41.7613 57.8769L40.268 54.8369C39.8168 53.9183 39.9376 52.807 40.576 52.0057C40.8079 51.7147 40.7599 51.2907 40.4688 51.0589C40.1778 50.8272 39.7537 50.875 39.5219 51.166C38.5605 52.373 38.3786 54.047 39.0585 55.431L40.145 57.6428L34.6601 55.5897C33.9363 55.3187 33.1556 55.2625 32.4022 55.427C31.4062 55.6448 30.3796 55.7459 29.3513 55.7253C24.8915 55.6399 20.7851 53.2509 18.4634 49.4421C20.0108 48.7177 21.4336 47.7125 22.6664 46.4532C25.329 43.7336 26.7923 40.1532 26.7867 36.3717C26.7836 34.2439 26.3212 32.1875 25.4478 30.3147C26.784 29.8649 28.1791 29.6365 29.6062 29.6365H29.6341C36.8092 29.6513 42.6492 35.5009 42.6523 42.6763C42.6533 44.9021 42.0838 47.0995 41.0054 49.031C40.824 49.356 40.9404 49.7665 41.2653 49.9479C41.5897 50.1288 42.0004 50.0135 42.1822 49.6879C43.3725 47.556 44.0011 45.1311 44 42.6757C43.9964 34.7593 37.5531 28.3054 29.6368 28.289Z" fill="black"/>
<path d="M6.39167 35.7315L10.0373 39.3771C10.3005 39.6402 10.7271 39.6402 10.9902 39.3771C11.2534 39.1139 11.2534 38.6873 10.9902 38.4241L7.34464 34.7785C6.40434 33.8383 6.40434 32.3084 7.34464 31.3682L7.96555 30.7472L11.1824 33.964L10.645 34.5013C10.0373 35.1091 10.0373 36.098 10.645 36.7058L12.081 38.1417C12.689 38.7495 13.6778 38.7494 14.2856 38.1417L14.8229 37.6044L18.0396 40.8212L17.4186 41.4422C16.4784 42.3825 14.9485 42.3825 14.0082 41.4422L12.8977 40.3316C12.6345 40.0685 12.2079 40.0685 11.9447 40.3316C11.6816 40.5948 11.6816 41.0214 11.9447 41.2846L13.0553 42.3951C13.7881 43.1279 14.7508 43.4944 15.7135 43.4944C16.6762 43.4944 17.6388 43.1279 18.3717 42.3951L19.1786 41.5882C19.3834 41.3833 19.4963 41.111 19.4963 40.8212C19.4963 40.5314 19.3833 40.259 19.1786 40.0542L15.5899 36.4655C15.1669 36.0426 14.4788 36.0426 14.0559 36.4656L13.3326 37.1889C13.2504 37.2712 13.1166 37.2714 13.0341 37.1889L11.5981 35.7529C11.5157 35.6706 11.5157 35.5367 11.5981 35.4544L12.3214 34.7311C12.7443 34.3081 12.7443 33.62 12.3214 33.197L8.73282 29.6086C8.52797 29.4037 8.25557 29.2907 7.96573 29.2907C7.67599 29.2907 7.40367 29.4036 7.19874 29.6084L6.39185 30.4153C4.92605 31.8809 4.92605 34.2658 6.39167 35.7315Z" fill="black"/>
</g>
<defs>
<clipPath id="clip0_0_1">
<rect width="1440" height="2062" fill="white" transform="translate(-705 -480)"/>
</clipPath>
</defs>
</svg>
